<svg version="1.0" viewBox="0 0 110 110" xml:space="preserve" xmlns="http://www.w3.org/2000/svg" enable-background="new 0 0 110 110"><circle cx="55" cy="55" r="55" fill="#e875ae" class="fill-e04f5f"></circle><path d="M75 23 49.792 48.208A19.918 19.918 0 0 0 43 47c-11.046 0-20 8.954-20 20s8.954 20 20 20 20-8.954 20-20c0-2.388-.44-4.668-1.208-6.792L63 59v-8h8v-8h8v-8h8V23H75zM47.595 76.204a2.894 2.894 0 0 1-1.777 2.1 10.123 10.123 0 0 1-10.853-2.269 10.123 10.123 0 0 1-2.268-10.855 2.89 2.89 0 0 1 4.738-.988l9.375 9.375c.69.69.985 1.682.785 2.637z" fill="#facb1b" class="fill-facb1b"></path><path d="M87 23H75L49.792 48.208A19.918 19.918 0 0 0 43 47c-11.046 0-20 8.954-20 20 0 5.701 2.397 10.832 6.224 14.475l5.602-5.602a10.117 10.117 0 0 1-2.128-10.693 2.89 2.89 0 0 1 4.738-.988l4.536 4.536L87 23.698V23z" fill="#fbe158" class="fill-fbe158"></path><path d="M55 49a1.415 1.415 0 0 1 0-2l22-22h4L57 49a1.415 1.415 0 0 1-2 0z" fill="#f3b607" class="fill-f3b607"></path></svg>